<svg xmlns="http://www.w3.org/2000/svg" width="250" height="100" viewBox="0 0 250 100"><style>.a{fill:#323232;}</style><rect width="250" height="100" fill="none"/><g transform="matrix(1 0 0 1 150 150)"><path d="M-127.2-79.6C-59.3-79.6 9.3-79.6 77.2-79.6M-127.2-89.9C-59.3-89.9 9.3-89.9 77.2-89.9" style="fill:none;stroke-width:2;stroke:#323232"/><path d="M47.5-95.1L38-95.1 24.6-108.5 24.6-118 21.4-118 21.4-107.1 36.6-91.9 47.5-91.9Z" class="a"/><path d="M-45.5-95.1L-36-95.1 -22.6-108.5 -22.6-118 -19.4-118 -19.4-107.1 -34.6-91.9 -45.5-91.9Z" class="a"/><path d="M-25-118L26-118 26-105.6 -25-105.6Z" class="a"/><path d="M-63.1-141.2L-63.1-104 -78-104 -78-141.2Z" class="a"/><path d="M-70.5-129.1L-70.5-58.8" style="fill:none;stroke-opacity:0.3;stroke-width:2;stroke:#323232"/></g></svg>