<svg xmlns="http://www.w3.org/2000/svg" viewBox="0 0 250 150"><defs/><path fill="none" d="M0 0h250v150H0z"/><path fill="none" stroke="#fff" stroke-width="2" d="M22.8 137.8h204.4M22.8 127.5h204.4"/><path fill="#fff" d="M147.6 78.5h-4.8l-1.7-1.7c5.9-6.8 9.5-15.6 9.5-25.4 0-21.6-17.4-39.2-39.1-39.2-21.6 0-39.1 17.5-39.1 39.2 0 21.5 17.4 39.1 39.1 39.1 9.7 0 18.6-3.6 25.4-9.5l1.7 1.7v4.8l30.1 29.9 8.9-8.9-30-30zm-36.1 0c-15 0-27-12.1-27-27 0-15 12-27.1 27-27.1 14.9 0 27 12.1 27 27.1 0 14.9-12.1 27-27 27z"/></svg>