<?xml version="1.0" encoding="utf-8"?>
<svg width="250" height="150" viewBox="0 0 250 150" xmlns="http://www.w3.org/2000/svg">
  <rect x="0" y="0" width="250" height="150" fill="#ffffff" fill-opacity="0"/>
  <g id="widget" transform="matrix(1,0,0,1,150,150)">
    <path d="M -127.195 -12.241 C -59.271 -12.241 9.271 -12.241 77.195 -12.241 M -127.195 -22.533 C -59.271 -22.533 9.271 -22.533 77.195 -22.533" fill="#ffffff" fill-opacity="0" stroke-width="2" stroke="#ffffff" stroke-linecap="square" stroke-linejoin="miter"/>
    <path d="M -2.437 -71.49 L -7.17 -71.49 L -8.854 -73.173 C -2.963 -80.01 0.613 -88.846 0.613 -98.629 C 0.613 -120.192 -16.848 -137.759 -38.517 -137.759 C -60.081 -137.759 -77.647 -120.297 -77.647 -98.629 C -77.647 -77.065 -60.186 -59.498 -38.517 -59.498 C -28.839 -59.498 -19.898 -63.075 -13.061 -68.965 L -11.378 -67.282 L -11.378 -62.549 L 18.706 -32.57 L 27.647 -41.511 L -2.437 -71.49 Z M -38.517 -71.49 C -53.454 -71.49 -65.55 -83.586 -65.55 -98.523 C -65.55 -113.46 -53.454 -125.557 -38.517 -125.557 C -23.58 -125.557 -11.483 -113.46 -11.483 -98.523 C -11.483 -83.586 -23.58 -71.49 -38.517 -71.49 Z" fill="#ffffff" fill-opacity="1"/>
  </g>
</svg>