<svg xmlns="http://www.w3.org/2000/svg" width="250" height="150" viewBox="0 0 250 150"><rect width="250" height="150" fill="none"/><g transform="matrix(1 0 0 1 150 150)"><path d="M-127.2-12.2C-59.3-12.2 9.3-12.2 77.2-12.2M-127.2-22.5C-59.3-22.5 9.3-22.5 77.2-22.5" style="fill:none;stroke-width:2;stroke:#fff"/><path d="M-2.4-71.5L-7.2-71.5 -8.9-73.2C-3-80 0.6-88.8 0.6-98.6 0.6-120.2-16.8-137.8-38.5-137.8 -60.1-137.8-77.6-120.3-77.6-98.6 -77.6-77.1-60.2-59.5-38.5-59.5 -28.8-59.5-19.9-63.1-13.1-69L-11.4-67.3 -11.4-62.5 18.7-32.6 27.6-41.5 -2.4-71.5ZM-38.5-71.5C-53.5-71.5-65.5-83.6-65.5-98.5 -65.5-113.5-53.5-125.6-38.5-125.6 -23.6-125.6-11.5-113.5-11.5-98.5 -11.5-83.6-23.6-71.5-38.5-71.5Z" fill="#fff"/></g></svg>