<?xml version="1.0" encoding="UTF-8" standalone="no"?><!DOCTYPE svg PUBLIC "-//W3C//DTD SVG 1.1//EN" "http://www.w3.org/Graphics/SVG/1.1/DTD/svg11.dtd"><svg width="100%" height="100%" viewBox="0 0 240 240" version="1.1" xmlns="http://www.w3.org/2000/svg" xmlns:xlink="http://www.w3.org/1999/xlink" xml:space="preserve" xmlns:serif="http://www.serif.com/" style="fill-rule:evenodd;clip-rule:evenodd;stroke-linecap:round;stroke-linejoin:round;stroke-miterlimit:1.5;"><g id="Layer2"><path d="M68.484,43.624c-19.334,13.041 -33.003,32.929 -38.249,55.652c5.246,-22.723 18.915,-42.611 38.249,-55.652Z" style="fill:none;stroke:#ffffff;stroke-width:3px;"/><path d="M36.506,158.934c15.131,32.449 47.691,53.192 83.494,53.192c3.753,0 7.502,-0.229 11.227,-0.687c-3.725,0.458 -7.474,0.687 -11.227,0.687c-35.803,0 -68.363,-20.743 -83.494,-53.192Z" style="fill:none;stroke:#ffffff;stroke-width:3px;"/><path d="M161.824,202.085c25.772,-13.131 43.88,-37.603 48.902,-66.088c-5.022,28.485 -23.13,52.957 -48.902,66.088Z" style="fill:none;stroke:#ffffff;stroke-width:3px;"/><path d="M201.342,76.749c-15.992,-30.077 -47.277,-48.875 -81.342,-48.875c-7.513,0 -14.998,0.919 -22.287,2.737c7.289,-1.818 14.774,-2.737 22.287,-2.737c34.065,0 65.35,18.798 81.342,48.875Z" style="fill:none;stroke:#ffffff;stroke-width:3px;"/></g><g id="Layer21" serif:id="Layer2"><path d="M50.193,209.349c19.936,15.576 44.508,24.037 69.807,24.037c21.247,0 42.067,-5.97 60.085,-17.229c-18.018,11.259 -38.838,17.229 -60.085,17.229c-25.299,0 -49.871,-8.461 -69.807,-24.037Z" style="fill:none;stroke:#ffffff;stroke-width:3px;"/><path d="M214.001,183.405c12.635,-18.732 19.385,-40.811 19.385,-63.405c0,-25.299 -8.461,-49.871 -24.037,-69.807c15.576,19.936 24.037,44.508 24.037,69.807c0,22.594 -6.75,44.673 -19.385,63.405Z" style="fill:none;stroke:#ffffff;stroke-width:3px;"/><path d="M24.907,58.246c-11.939,18.383 -18.293,39.834 -18.293,61.754c0,23.945 7.581,47.275 21.655,66.647c-14.074,-19.372 -21.655,-42.702 -21.655,-66.647c0,-21.92 6.354,-43.371 18.293,-61.754Z" style="fill:none;stroke:#ffffff;stroke-width:3px;"/><path d="M186.647,28.269c-19.372,-14.074 -42.702,-21.655 -66.647,-21.655c-22.594,0 -44.673,6.75 -63.405,19.385c18.732,-12.635 40.811,-19.385 63.405,-19.385c23.945,0 47.275,7.581 66.647,21.655Z" style="fill:none;stroke:#ffffff;stroke-width:3px;"/></g><ellipse cx="120" cy="120" rx="49.606" ry="49.614" style="fill:#ffffff;"/></svg>