<svg xmlns="http://www.w3.org/2000/svg" width="100" height="100" viewBox="0 0 240 240" shape-rendering="geometricPrecision" stroke-linejoin="round"><style>.a{fill:none;stroke-width:6px;stroke:#007fff;}</style><path d="M68.5 43.6c-19.3 13-33 32.9-38.2 55.7 5.2-22.7 18.9-42.6 38.2-55.7Z" class="a"/><path d="M36.5 158.9c15.1 32.4 47.7 53.2 83.5 53.2 3.8 0 7.5-0.2 11.2-0.7 -3.7 0.5-7.5 0.7-11.2 0.7 -35.8 0-68.4-20.7-83.5-53.2Z" class="a"/><path d="M161.8 202.1c25.8-13.1 43.9-37.6 48.9-66.1 -5 28.5-23.1 53-48.9 66.1Z" class="a"/><path d="M201.3 76.7c-16-30.1-47.3-48.9-81.3-48.9 -7.5 0-15 0.9-22.3 2.7 7.3-1.8 14.8-2.7 22.3-2.7 34.1 0 65.4 18.8 81.3 48.9Z" class="a"/><path d="M50.2 209.3c19.9 15.6 44.5 24 69.8 24 21.2 0 42.1-6 60.1-17.2 -18 11.3-38.8 17.2-60.1 17.2 -25.3 0-49.9-8.5-69.8-24Z" class="a"/><path d="M214 183.4c12.6-18.7 19.4-40.8 19.4-63.4 0-25.3-8.5-49.9-24-69.8 15.6 19.9 24 44.5 24 69.8 0 22.6-6.7 44.7-19.4 63.4Z" class="a"/><path d="M24.9 58.2c-11.9 18.4-18.3 39.8-18.3 61.8 0 23.9 7.6 47.3 21.7 66.6 -14.1-19.4-21.7-42.7-21.7-66.6 0-21.9 6.4-43.4 18.3-61.8Z" class="a"/><path d="M186.6 28.3c-19.4-14.1-42.7-21.7-66.6-21.7 -22.6 0-44.7 6.8-63.4 19.4 18.7-12.6 40.8-19.4 63.4-19.4 23.9 0 47.3 7.6 66.6 21.7Z" class="a"/><ellipse cx="120" cy="120" rx="49.6" ry="49.6" fill="#007fff"/></svg>