<?xml version="1.0" encoding="UTF-8" standalone="no"?>
<!DOCTYPE svg PUBLIC "-//W3C//DTD SVG 1.1//EN" "http://www.w3.org/Graphics/SVG/1.1/DTD/svg11.dtd">
<svg version="1.1" xmlns="http://www.w3.org/2000/svg" xmlns:xlink="http://www.w3.org/1999/xlink" preserveAspectRatio="xMidYMid meet" viewBox="0 0 250 250">
    <defs>
      <path d="M92.78 23.46C97.77 21.66 102.91 20.44 107.84 19.58" id="d8fMzmJFC7"></path>
      <path d="M20.23 117.94C21.09 101.92 25.77 86.13 34.42 71.15C40.62 60.42 48.45 51.13 56.93 43.7C62.67 38.88 68.76 34.75 75.39 30.93" id="g1UxKSdsot"></path>
      <path d="M200.51 200.33C193.49 207.37 185.57 213.4 176.7 217.65C162.58 225.03 147.09 229.65 131.17 230.32C120.81 230.75 109.76 229.8 99.71 226.71" id="h2TBv7qPMo"></path>
      <path d="M197.92 45.94C204.09 51.48 209.36 57.73 213.75 64.21C218.68 71.49 222.64 78.71 225.39 87.2C227.3 92 228.63 96.96 229.77 101.82" id="bWomevmX"></path>
      <path d="M48.62 196.47C41.34 188.57 35.45 179.99 30.93 170.73" id="a2xcplwIfG"></path>
      <path d="M213.49 37.07C218.15 41.35 222.28 46.12 225.9 50.86" id="eszex66Fh"></path>
      <path d="M73.58 12.41C91 4.49 110.28 0.74 130.89 1.63C145.65 2.27 159.79 5.43 172.33 10.3C180.6 13.72 188.32 17.88 196.01 22.8" id="aMYjJy6C9"></path>
      <path d="M6.16 85.72C10.5 73.67 16.33 62.7 23.64 52.82" id="i74I6ViwoQ"></path>
      <path d="M85.8 248.5C74.48 244.95 63.74 239.9 54.35 232.86C38.76 221.99 25.34 208.15 15.85 191.68C9.69 180.96 4.61 168.76 2.33 156.43" id="er72tXULA"></path>
      <path d="M247.67 160.66C245.21 170.24 241.51 179.26 237.07 187.48C232.08 196.7 226.63 204.88 219.17 212.46C215.14 217.13 210.63 221.27 206.12 225.15" id="bfuGRxwl"></path>
      <path d="M123.06 169.94C98.24 168.86 78.99 147.87 80.06 123.06C81.14 98.24 102.13 78.99 126.94 80.06C151.76 81.14 171.01 102.13 169.94 126.94C168.86 151.76 147.87 171.01 123.06 169.94Z" id="e29mEoDHrX"></path>
    </defs>
      <g visibility="inherit">
        <g visibility="inherit">
          <g visibility="inherit">
            <use xlink:href="#d8fMzmJFC7" opacity="1" fill="#ffffff" fill-opacity="0"></use>
            <g>
              <use xlink:href="#d8fMzmJFC7" opacity="1" fill-opacity="0" stroke="#ffffff" stroke-width="3" stroke-opacity="1"></use>
            </g>
          </g>
          <g visibility="inherit">
            <use xlink:href="#g1UxKSdsot" opacity="1" fill="#000000" fill-opacity="0"></use>
            <g>
              <use xlink:href="#g1UxKSdsot" opacity="1" fill-opacity="0" stroke="#ffffff" stroke-width="3" stroke-opacity="1"></use>
            </g>
          </g>
          <g visibility="inherit">
            <use xlink:href="#h2TBv7qPMo" opacity="1" fill="#000000" fill-opacity="0"></use>
            <g>
              <use xlink:href="#h2TBv7qPMo" opacity="1" fill-opacity="0" stroke="#ffffff" stroke-width="3" stroke-opacity="1"></use>
            </g>
          </g>
            <g visibility="inherit"><use xlink:href="#bWomevmX" opacity="1" fill="#000000" fill-opacity="0"></use>
            <g><use xlink:href="#bWomevmX" opacity="1" fill-opacity="0" stroke="#ffffff" stroke-width="3" stroke-opacity="1"></use></g>
            </g><g visibility="inherit"><use xlink:href="#a2xcplwIfG" opacity="1" fill="#000000" fill-opacity="0"></use>
            <g><use xlink:href="#a2xcplwIfG" opacity="1" fill-opacity="0" stroke="#ffffff" stroke-width="3" stroke-opacity="1"></use></g></g>
            <g visibility="inherit"><use xlink:href="#eszex66Fh" opacity="1" fill="#000000" fill-opacity="0"></use><g><use xlink:href="#eszex66Fh" opacity="1" fill-opacity="0" stroke="#ffffff" stroke-width="3" stroke-opacity="1"></use></g></g>
            <g visibility="inherit"><use xlink:href="#aMYjJy6C9" opacity="1" fill="#000000" fill-opacity="0"></use><g><use xlink:href="#aMYjJy6C9" opacity="1" fill-opacity="0" stroke="#ffffff" stroke-width="3" stroke-opacity="1"></use></g></g>
            <g visibility="inherit"><use xlink:href="#i74I6ViwoQ" opacity="1" fill="#000000" fill-opacity="0"></use><g><use xlink:href="#i74I6ViwoQ" opacity="1" fill-opacity="0" stroke="#ffffff" stroke-width="3" stroke-opacity="1"></use></g></g>
            <g visibility="inherit"><use xlink:href="#er72tXULA" opacity="1" fill="#000000" fill-opacity="0"></use><g><use xlink:href="#er72tXULA" opacity="1" fill-opacity="0" stroke="#ffffff" stroke-width="3" stroke-opacity="1"></use></g></g>
            <g visibility="inherit"><use xlink:href="#bfuGRxwl" opacity="1" fill="#000000" fill-opacity="0"></use><g><use xlink:href="#bfuGRxwl" opacity="1" fill-opacity="0" stroke="#ffffff" stroke-width="3" stroke-opacity="1"></use></g></g>
            <g visibility="inherit"><use xlink:href="#e29mEoDHrX" opacity="1" fill="#ffffff" fill-opacity="1"></use><g><use xlink:href="#e29mEoDHrX" opacity="1" fill-opacity="0" stroke="#ffffff" stroke-width="3" stroke-opacity="1"></use>
            </g></g></g></g>
            </svg>