<svg xmlns="http://www.w3.org/2000/svg" width="250" height="125" viewBox="0 0 250 125"><rect width="250" height="125" fill="none"/><g transform="matrix(1 0 0 1 150 150)"><path d="M42.7-142L-22.7-53.2 66-118.7Z" fill="#fff"/><path d="M-115-108.2C-115-108.2-106.1-110.6-100.6-107.4 -95.1-104.2-92.7-95.4-92.7-95.4 -92.7-95.4-90.3-86.5-84.8-83.3 -79.2-80.1-70.6-82.6-70.6-82.6 -70.6-82.6-61.8-85-56.2-81.8 -50.6-78.5-48.3-69.7-48.3-69.7 -48.3-69.7-46-60.9-40.4-57.7 -34.8-54.5-26.2-57-26.2-57" style="fill:none;stroke-width:3;stroke:#fff"/><path d="M-127.2-33C-59.3-33 9.3-33 77.2-33M-127.2-43.3C-59.3-43.3 9.3-43.3 77.2-43.3" style="fill:none;stroke-width:2;stroke:#fff"/></g></svg>