<?xml version="1.0" encoding="utf-8"?>
<svg width="250" height="125" viewBox="0 0 250 125" xmlns="http://www.w3.org/2000/svg">
  <rect x="0" y="0" width="250" height="125" fill="#ffffff" fill-opacity="0"/>
  <g id="widget" transform="matrix(1,0,0,1,150,150)">
    <path d="M 42.723 -141.955 L -22.738 -53.223 L 65.993 -118.684 Z" fill="#ffffff" fill-opacity="1"/>
    <path d="M -114.973 -108.215 C -114.973 -108.215 -106.12 -110.588 -100.596 -107.399 C -95.073 -104.21 -92.701 -95.357 -92.701 -95.357 C -92.701 -95.357 -90.329 -86.504 -84.805 -83.315 C -79.193 -80.075 -70.607 -82.601 -70.607 -82.601 C -70.607 -82.601 -61.754 -84.973 -56.231 -81.784 C -50.618 -78.544 -48.335 -69.742 -48.335 -69.742 C -48.335 -69.742 -45.963 -60.889 -40.44 -57.701 C -34.827 -54.46 -26.242 -56.987 -26.242 -56.987" fill="#ffffff" fill-opacity="0" stroke="#ffffff" stroke-linecap="square" stroke-linejoin="miter" style="stroke-width: 3;"/>
    <path d="M -127.195 -33.045 C -59.271 -33.045 9.271 -33.045 77.195 -33.045 M -127.195 -43.337 C -59.271 -43.337 9.271 -43.337 77.195 -43.337" fill="#ffffff" fill-opacity="0" stroke-width="2" stroke="#ffffff" stroke-linecap="square" stroke-linejoin="miter"/>
  </g>
</svg>