<?xml version="1.0" standalone="no"?><!-- Generator: Gravit.io --><svg xmlns="http://www.w3.org/2000/svg" xmlns:xlink="http://www.w3.org/1999/xlink" style="isolation:isolate" viewBox="0 0 800 800" width="800" height="800" shape-rendering="geometricPrecision"><defs><clipPath id="_clipPath_qAhtrbB5qBunHg2eAnFHGKnj97m8bkP5"><rect width="800" height="800"/></clipPath></defs><g clip-path="url(#_clipPath_qAhtrbB5qBunHg2eAnFHGKnj97m8bkP5)"><g id="neptuneLogo refresh-web"><g id="Layer2"><path d=" M 262.334 106.901 C 210.668 141.751 174.141 194.897 160.122 255.62 C 174.141 194.897 210.668 141.751 262.334 106.901 Z " fill-rule="evenodd" fill="none" vector-effect="non-scaling-stroke" stroke-width="6" stroke="rgb(0,127,255)" stroke-linejoin="round" stroke-linecap="round" stroke-miterlimit="1.5"/><path d=" M 176.88 415.043 C 217.314 501.756 304.324 557.187 400 557.187 C 410.029 557.187 420.047 556.575 430.002 555.351 C 420.047 556.575 410.029 557.187 400 557.187 C 304.324 557.187 217.314 501.756 176.88 415.043 Z " fill-rule="evenodd" fill="none" vector-effect="non-scaling-stroke" stroke-width="6" stroke="rgb(0,127,255)" stroke-linejoin="round" stroke-linecap="round" stroke-miterlimit="1.5"/><path d=" M 511.766 530.355 C 580.636 495.265 629.026 429.869 642.446 353.749 C 629.026 429.869 580.636 495.265 511.766 530.355 Z " fill-rule="evenodd" fill="none" vector-effect="non-scaling-stroke" stroke-width="6" stroke="rgb(0,127,255)" stroke-linejoin="round" stroke-linecap="round" stroke-miterlimit="1.5"/><path d=" M 617.369 195.421 C 574.634 115.046 491.031 64.813 400 64.813 C 379.923 64.813 359.921 67.269 340.443 72.127 C 359.921 67.269 379.923 64.813 400 64.813 C 491.031 64.813 574.634 115.046 617.369 195.421 L 617.369 195.421 Z " fill-rule="evenodd" fill="none" vector-effect="non-scaling-stroke" stroke-width="6" stroke="rgb(0,127,255)" stroke-linejoin="round" stroke-linecap="round" stroke-miterlimit="1.5"/></g><g id="Layer21"><path d=" M 213.456 549.766 C 266.73 591.39 332.394 614 400 614 C 456.778 614 512.415 598.046 560.564 567.959 C 512.415 598.046 456.778 614 400 614 C 332.394 614 266.73 591.39 213.456 549.766 L 213.456 549.766 Z " fill-rule="evenodd" fill="none" vector-effect="non-scaling-stroke" stroke-width="6" stroke="rgb(0,127,255)" stroke-linejoin="round" stroke-linecap="round" stroke-miterlimit="1.5"/><path d=" M 651.198 480.436 C 684.962 430.379 703 371.378 703 311 C 703 243.394 680.39 177.73 638.766 124.456 C 680.39 177.73 703 243.394 703 311 C 703 371.378 684.962 430.379 651.198 480.436 Z " fill-rule="evenodd" fill="none" vector-effect="non-scaling-stroke" stroke-width="6" stroke="rgb(0,127,255)" stroke-linejoin="round" stroke-linecap="round" stroke-miterlimit="1.5"/><path d=" M 145.884 145.976 C 113.98 195.1 97 252.423 97 311 C 97 374.988 117.259 437.332 154.868 489.1 C 117.259 437.332 97 374.988 97 311 C 97 252.423 113.98 195.1 145.884 145.976 L 145.884 145.976 Z " fill-rule="evenodd" fill="none" vector-effect="non-scaling-stroke" stroke-width="6" stroke="rgb(0,127,255)" stroke-linejoin="round" stroke-linecap="round" stroke-miterlimit="1.5"/><path d=" M 578.1 65.868 C 526.332 28.259 463.988 8 400 8 C 339.622 8 280.621 26.038 230.564 59.802 C 280.621 26.038 339.622 8 400 8 C 463.988 8 526.332 28.259 578.1 65.868 Z " fill-rule="evenodd" fill="none" vector-effect="non-scaling-stroke" stroke-width="6" stroke="rgb(0,127,255)" stroke-linejoin="round" stroke-linecap="round" stroke-miterlimit="1.5"/></g><path d=" M 267.439 311 C 267.439 237.826 326.837 178.417 400 178.417 C 473.163 178.417 532.561 237.826 532.561 311 C 532.561 384.174 473.163 443.583 400 443.583 C 326.837 443.583 267.439 384.174 267.439 311 Z " fill="rgb(0,127,255)" vector-effect="non-scaling-stroke" stroke-width="1" stroke="rgb(0,127,255)" stroke-linejoin="round" stroke-linecap="round" stroke-miterlimit="1.5"/></g><path d=" M 65.2 655.24 L 65.2 655.24 Q 77.98 655.24 88.15 660.64 L 88.15 660.64 L 88.15 660.64 Q 98.32 666.04 104.08 676.39 L 104.08 676.39 L 104.08 676.39 Q 109.84 686.74 109.84 701.14 L 109.84 701.14 L 109.84 747.94 L 109.84 747.94 Q 109.84 750.82 107.86 752.8 L 107.86 752.8 L 107.86 752.8 Q 105.88 754.78 103 754.78 L 103 754.78 L 103 754.78 Q 99.94 754.78 97.96 752.8 L 97.96 752.8 L 97.96 752.8 Q 95.98 750.82 95.98 747.94 L 95.98 747.94 L 95.98 701.14 L 95.98 701.14 Q 95.98 685.12 87.07 676.75 L 87.07 676.75 L 87.07 676.75 Q 78.16 668.38 63.76 668.38 L 63.76 668.38 L 63.76 668.38 Q 54.94 668.38 47.83 671.8 L 47.83 671.8 L 47.83 671.8 Q 40.72 675.22 36.58 681.25 L 36.58 681.25 L 36.58 681.25 Q 32.44 687.28 32.44 694.66 L 32.44 694.66 L 32.44 747.94 L 32.44 747.94 Q 32.44 751 30.55 752.89 L 30.55 752.89 L 30.55 752.89 Q 28.66 754.78 25.6 754.78 L 25.6 754.78 L 25.6 754.78 Q 22.54 754.78 20.56 752.89 L 20.56 752.89 L 20.56 752.89 Q 18.58 751 18.58 747.94 L 18.58 747.94 L 18.58 663.34 L 18.58 663.34 Q 18.58 660.28 20.56 658.3 L 20.56 658.3 L 20.56 658.3 Q 22.54 656.32 25.6 656.32 L 25.6 656.32 L 25.6 656.32 Q 28.66 656.32 30.55 658.3 L 30.55 658.3 L 30.55 658.3 Q 32.44 660.28 32.44 663.34 L 32.44 663.34 L 32.44 669.46 L 32.44 669.46 Q 38.38 662.8 46.84 659.02 L 46.84 659.02 L 46.84 659.02 Q 55.3 655.24 65.2 655.24 L 65.2 655.24 Z  M 182.38 655.42 L 182.38 655.42 Q 195.7 655.42 205.96 661.63 L 205.96 661.63 L 205.96 661.63 Q 216.22 667.84 221.89 678.82 L 221.89 678.82 L 221.89 678.82 Q 227.56 689.8 227.56 703.84 L 227.56 703.84 L 227.56 703.84 Q 227.56 706.72 225.76 708.43 L 225.76 708.43 L 225.76 708.43 Q 223.96 710.14 221.08 710.14 L 221.08 710.14 L 148.36 710.14 L 148.36 710.14 Q 149.8 724.9 159.88 734.08 L 159.88 734.08 L 159.88 734.08 Q 169.96 743.26 185.08 743.26 L 185.08 743.26 L 185.08 743.26 Q 191.56 743.26 198.13 741.01 L 198.13 741.01 L 198.13 741.01 Q 204.7 738.76 208.66 735.34 L 208.66 735.34 L 208.66 735.34 Q 211 733.54 213.52 733.54 L 213.52 733.54 L 213.52 733.54 Q 215.5 733.54 217.48 734.98 L 217.48 734.98 L 217.48 734.98 Q 219.82 737.14 219.82 739.84 L 219.82 739.84 L 219.82 739.84 Q 219.82 742.18 217.84 743.98 L 217.84 743.98 L 217.84 743.98 Q 211.9 749.02 202.72 752.35 L 202.72 752.35 L 202.72 752.35 Q 193.54 755.68 185.08 755.68 L 185.08 755.68 L 185.08 755.68 Q 170.68 755.68 159.34 749.29 L 159.34 749.29 L 159.34 749.29 Q 148 742.9 141.61 731.47 L 141.61 731.47 L 141.61 731.47 Q 135.22 720.04 135.22 705.64 L 135.22 705.64 L 135.22 705.64 Q 135.22 691.06 141.25 679.63 L 141.25 679.63 L 141.25 679.63 Q 147.28 668.2 157.99 661.81 L 157.99 661.81 L 157.99 661.81 Q 168.7 655.42 182.38 655.42 L 182.38 655.42 Z  M 182.38 667.84 L 182.38 667.84 Q 168.7 667.84 159.7 676.3 L 159.7 676.3 L 159.7 676.3 Q 150.7 684.76 148.72 698.62 L 148.72 698.62 L 214.6 698.62 L 214.6 698.62 Q 213.16 684.76 204.52 676.3 L 204.52 676.3 L 204.52 676.3 Q 195.88 667.84 182.38 667.84 L 182.38 667.84 Z  M 301 655.42 L 301 655.42 Q 315.04 655.42 326.47 661.99 L 326.47 661.99 L 326.47 661.99 Q 337.9 668.56 344.47 680.08 L 344.47 680.08 L 344.47 680.08 Q 351.04 691.6 351.04 705.64 L 351.04 705.64 L 351.04 705.64 Q 351.04 719.68 344.65 731.11 L 344.65 731.11 L 344.65 731.11 Q 338.26 742.54 327.19 749.11 L 327.19 749.11 L 327.19 749.11 Q 316.12 755.68 302.44 755.68 L 302.44 755.68 L 302.44 755.68 Q 290.74 755.68 281.02 750.73 L 281.02 750.73 L 281.02 750.73 Q 271.3 745.78 265 737.14 L 265 737.14 L 265 789.88 L 265 789.88 Q 265 792.94 263.02 794.92 L 263.02 794.92 L 263.02 794.92 Q 261.04 796.9 257.98 796.9 L 257.98 796.9 L 257.98 796.9 Q 254.92 796.9 253.03 794.92 L 253.03 794.92 L 253.03 794.92 Q 251.14 792.94 251.14 789.88 L 251.14 789.88 L 251.14 749.56 L 251.14 749.56 Q 250.96 749.02 250.96 747.94 L 250.96 747.94 L 250.96 705.64 L 250.96 705.64 Q 250.96 691.6 257.53 680.08 L 257.53 680.08 L 257.53 680.08 Q 264.1 668.56 275.53 661.99 L 275.53 661.99 L 275.53 661.99 Q 286.96 655.42 301 655.42 L 301 655.42 Z  M 301 743.08 L 301 743.08 Q 311.26 743.08 319.63 738.22 L 319.63 738.22 L 319.63 738.22 Q 328 733.36 332.77 724.81 L 332.77 724.81 L 332.77 724.81 Q 337.54 716.26 337.54 705.64 L 337.54 705.64 L 337.54 705.64 Q 337.54 695.02 332.77 686.47 L 332.77 686.47 L 332.77 686.47 Q 328 677.92 319.63 672.97 L 319.63 672.97 L 319.63 672.97 Q 311.26 668.02 301 668.02 L 301 668.02 L 301 668.02 Q 290.74 668.02 282.46 672.97 L 282.46 672.97 L 282.46 672.97 Q 274.18 677.92 269.41 686.47 L 269.41 686.47 L 269.41 686.47 Q 264.64 695.02 264.64 705.64 L 264.64 705.64 L 264.64 705.64 Q 264.64 708.7 264.82 710.14 L 264.82 710.14 L 264.82 710.14 Q 265 710.5 265 711.04 L 265 711.04 L 265 711.04 Q 266.8 725.08 276.79 734.08 L 276.79 734.08 L 276.79 734.08 Q 286.78 743.08 301 743.08 L 301 743.08 Z  M 421.6 740.92 L 421.6 740.92 Q 424.48 740.92 426.28 742.9 L 426.28 742.9 L 426.28 742.9 Q 428.08 744.88 428.08 747.94 L 428.08 747.94 L 428.08 747.94 Q 428.08 750.82 425.92 752.8 L 425.92 752.8 L 425.92 752.8 Q 423.76 754.78 420.52 754.78 L 420.52 754.78 L 416.74 754.78 L 416.74 754.78 Q 407.2 754.78 399.64 750.19 L 399.64 750.19 L 399.64 750.19 Q 392.08 745.6 387.85 737.77 L 387.85 737.77 L 387.85 737.77 Q 383.62 729.94 383.62 720.04 L 383.62 720.04 L 383.62 671.98 L 371.92 671.98 L 371.92 671.98 Q 369.04 671.98 367.33 670.27 L 367.33 670.27 L 367.33 670.27 Q 365.62 668.56 365.62 666.04 L 365.62 666.04 L 365.62 666.04 Q 365.62 663.34 367.33 661.63 L 367.33 661.63 L 367.33 661.63 Q 369.04 659.92 371.92 659.92 L 371.92 659.92 L 383.62 659.92 L 383.62 632.02 L 383.62 632.02 Q 383.62 628.96 385.51 626.98 L 385.51 626.98 L 385.51 626.98 Q 387.4 625 390.46 625 L 390.46 625 L 390.46 625 Q 393.52 625 395.5 626.98 L 395.5 626.98 L 395.5 626.98 Q 397.48 628.96 397.48 632.02 L 397.48 632.02 L 397.48 659.92 L 417.82 659.92 L 417.82 659.92 Q 420.7 659.92 422.41 661.63 L 422.41 661.63 L 422.41 661.63 Q 424.12 663.34 424.12 666.04 L 424.12 666.04 L 424.12 666.04 Q 424.12 668.56 422.41 670.27 L 422.41 670.27 L 422.41 670.27 Q 420.7 671.98 417.82 671.98 L 417.82 671.98 L 397.48 671.98 L 397.48 720.04 L 397.48 720.04 Q 397.48 729.22 402.88 735.07 L 402.88 735.07 L 402.88 735.07 Q 408.28 740.92 416.74 740.92 L 416.74 740.92 L 421.6 740.92 Z  M 533.02 656.32 L 533.02 656.32 Q 536.08 656.32 538.06 658.21 L 538.06 658.21 L 538.06 658.21 Q 540.04 660.1 540.04 663.16 L 540.04 663.16 L 540.04 747.76 L 540.04 747.76 Q 540.04 750.82 538.06 752.8 L 538.06 752.8 L 538.06 752.8 Q 536.08 754.78 533.02 754.78 L 533.02 754.78 L 533.02 754.78 Q 529.96 754.78 528.07 752.8 L 528.07 752.8 L 528.07 752.8 Q 526.18 750.82 526.18 747.76 L 526.18 747.76 L 526.18 741.64 L 526.18 741.64 Q 520.24 748.3 511.78 752.08 L 511.78 752.08 L 511.78 752.08 Q 503.32 755.86 493.42 755.86 L 493.42 755.86 L 493.42 755.86 Q 480.64 755.86 470.47 750.46 L 470.47 750.46 L 470.47 750.46 Q 460.3 745.06 454.54 734.71 L 454.54 734.71 L 454.54 734.71 Q 448.78 724.36 448.78 709.96 L 448.78 709.96 L 448.78 663.16 L 448.78 663.16 Q 448.78 660.28 450.76 658.3 L 450.76 658.3 L 450.76 658.3 Q 452.74 656.32 455.62 656.32 L 455.62 656.32 L 455.62 656.32 Q 458.68 656.32 460.66 658.3 L 460.66 658.3 L 460.66 658.3 Q 462.64 660.28 462.64 663.16 L 462.64 663.16 L 462.64 709.96 L 462.64 709.96 Q 462.64 725.98 471.55 734.35 L 471.55 734.35 L 471.55 734.35 Q 480.46 742.72 494.86 742.72 L 494.86 742.72 L 494.86 742.72 Q 503.68 742.72 510.79 739.3 L 510.79 739.3 L 510.79 739.3 Q 517.9 735.88 522.04 729.85 L 522.04 729.85 L 522.04 729.85 Q 526.18 723.82 526.18 716.44 L 526.18 716.44 L 526.18 663.16 L 526.18 663.16 Q 526.18 660.1 528.07 658.21 L 528.07 658.21 L 528.07 658.21 Q 529.96 656.32 533.02 656.32 L 533.02 656.32 Z  M 619.06 655.24 L 619.06 655.24 Q 631.84 655.24 642.01 660.64 L 642.01 660.64 L 642.01 660.64 Q 652.18 666.04 657.94 676.39 L 657.94 676.39 L 657.94 676.39 Q 663.7 686.74 663.7 701.14 L 663.7 701.14 L 663.7 747.94 L 663.7 747.94 Q 663.7 750.82 661.72 752.8 L 661.72 752.8 L 661.72 752.8 Q 659.74 754.78 656.86 754.78 L 656.86 754.78 L 656.86 754.78 Q 653.8 754.78 651.82 752.8 L 651.82 752.8 L 651.82 752.8 Q 649.84 750.82 649.84 747.94 L 649.84 747.94 L 649.84 701.14 L 649.84 701.14 Q 649.84 685.12 640.93 676.75 L 640.93 676.75 L 640.93 676.75 Q 632.02 668.38 617.62 668.38 L 617.62 668.38 L 617.62 668.38 Q 608.8 668.38 601.69 671.8 L 601.69 671.8 L 601.69 671.8 Q 594.58 675.22 590.44 681.25 L 590.44 681.25 L 590.44 681.25 Q 586.3 687.28 586.3 694.66 L 586.3 694.66 L 586.3 747.94 L 586.3 747.94 Q 586.3 751 584.41 752.89 L 584.41 752.89 L 584.41 752.89 Q 582.52 754.78 579.46 754.78 L 579.46 754.78 L 579.46 754.78 Q 576.4 754.78 574.42 752.89 L 574.42 752.89 L 574.42 752.89 Q 572.44 751 572.44 747.94 L 572.44 747.94 L 572.44 663.34 L 572.44 663.34 Q 572.44 660.28 574.42 658.3 L 574.42 658.3 L 574.42 658.3 Q 576.4 656.32 579.46 656.32 L 579.46 656.32 L 579.46 656.32 Q 582.52 656.32 584.41 658.3 L 584.41 658.3 L 584.41 658.3 Q 586.3 660.28 586.3 663.34 L 586.3 663.34 L 586.3 669.46 L 586.3 669.46 Q 592.24 662.8 600.7 659.02 L 600.7 659.02 L 600.7 659.02 Q 609.16 655.24 619.06 655.24 L 619.06 655.24 Z  M 736.24 655.42 L 736.24 655.42 Q 749.56 655.42 759.82 661.63 L 759.82 661.63 L 759.82 661.63 Q 770.08 667.84 775.75 678.82 L 775.75 678.82 L 775.75 678.82 Q 781.42 689.8 781.42 703.84 L 781.42 703.84 L 781.42 703.84 Q 781.42 706.72 779.62 708.43 L 779.62 708.43 L 779.62 708.43 Q 777.82 710.14 774.94 710.14 L 774.94 710.14 L 702.22 710.14 L 702.22 710.14 Q 703.66 724.9 713.74 734.08 L 713.74 734.08 L 713.74 734.08 Q 723.82 743.26 738.94 743.26 L 738.94 743.26 L 738.94 743.26 Q 745.42 743.26 751.99 741.01 L 751.99 741.01 L 751.99 741.01 Q 758.56 738.76 762.52 735.34 L 762.52 735.34 L 762.52 735.34 Q 764.86 733.54 767.38 733.54 L 767.38 733.54 L 767.38 733.54 Q 769.36 733.54 771.34 734.98 L 771.34 734.98 L 771.34 734.98 Q 773.68 737.14 773.68 739.84 L 773.68 739.84 L 773.68 739.84 Q 773.68 742.18 771.7 743.98 L 771.7 743.98 L 771.7 743.98 Q 765.76 749.02 756.58 752.35 L 756.58 752.35 L 756.58 752.35 Q 747.4 755.68 738.94 755.68 L 738.94 755.68 L 738.94 755.68 Q 724.54 755.68 713.2 749.29 L 713.2 749.29 L 713.2 749.29 Q 701.86 742.9 695.47 731.47 L 695.47 731.47 L 695.47 731.47 Q 689.08 720.04 689.08 705.64 L 689.08 705.64 L 689.08 705.64 Q 689.08 691.06 695.11 679.63 L 695.11 679.63 L 695.11 679.63 Q 701.14 668.2 711.85 661.81 L 711.85 661.81 L 711.85 661.81 Q 722.56 655.42 736.24 655.42 L 736.24 655.42 Z  M 736.24 667.84 L 736.24 667.84 Q 722.56 667.84 713.56 676.3 L 713.56 676.3 L 713.56 676.3 Q 704.56 684.76 702.58 698.62 L 702.58 698.62 L 768.46 698.62 L 768.46 698.62 Q 767.02 684.76 758.38 676.3 L 758.38 676.3 L 758.38 676.3 Q 749.74 667.84 736.24 667.84 L 736.24 667.84 Z " fill-rule="evenodd" fill="rgb(0,127,255)"/></g></svg>