<svg xmlns="http://www.w3.org/2000/svg" viewBox="0 0 800 800" width="800" height="800" shape-rendering="geometricPrecision" isolation="isolate"><style>.a{fill:none;stroke-linejoin:round;stroke-width:6;stroke:rgb(0,127,255);}</style><defs><clipPath><rect width="800" height="800"/></clipPath></defs><g clip-path="url(#_clipPath_qAhtrbB5qBunHg2eAnFHGKnj97m8bkP5)"><path d="M262.3 106.9C210.7 141.8 174.1 194.9 160.1 255.6 174.1 194.9 210.7 141.8 262.3 106.9Z" vector-effect="non-scaling-stroke" class="a"/><path d="M176.9 415C217.3 501.8 304.3 557.2 400 557.2 410 557.2 420 556.6 430 555.4 420 556.6 410 557.2 400 557.2 304.3 557.2 217.3 501.8 176.9 415Z" vector-effect="non-scaling-stroke" class="a"/><path d="M511.8 530.4C580.6 495.3 629 429.9 642.4 353.7 629 429.9 580.6 495.3 511.8 530.4Z" vector-effect="non-scaling-stroke" class="a"/><path d="M617.4 195.4C574.6 115 491 64.8 400 64.8 379.9 64.8 359.9 67.3 340.4 72.1 359.9 67.3 379.9 64.8 400 64.8 491 64.8 574.6 115 617.4 195.4L617.4 195.4Z" vector-effect="non-scaling-stroke" class="a"/><path d="M213.5 549.8C266.7 591.4 332.4 614 400 614 456.8 614 512.4 598 560.6 568 512.4 598 456.8 614 400 614 332.4 614 266.7 591.4 213.5 549.8L213.5 549.8Z" vector-effect="non-scaling-stroke" class="a"/><path d="M651.2 480.4C685 430.4 703 371.4 703 311 703 243.4 680.4 177.7 638.8 124.5 680.4 177.7 703 243.4 703 311 703 371.4 685 430.4 651.2 480.4Z" vector-effect="non-scaling-stroke" class="a"/><path d="M145.9 146C114 195.1 97 252.4 97 311 97 375 117.3 437.3 154.9 489.1 117.3 437.3 97 375 97 311 97 252.4 114 195.1 145.9 146L145.9 146Z" vector-effect="non-scaling-stroke" class="a"/><path d="M578.1 65.9C526.3 28.3 464 8 400 8 339.6 8 280.6 26 230.6 59.8 280.6 26 339.6 8 400 8 464 8 526.3 28.3 578.1 65.9Z" vector-effect="non-scaling-stroke" class="a"/><path d="M267.4 311C267.4 237.8 326.8 178.4 400 178.4 473.2 178.4 532.6 237.8 532.6 311 532.6 384.2 473.2 443.6 400 443.6 326.8 443.6 267.4 384.2 267.4 311Z" vector-effect="non-scaling-stroke" style="fill:rgb(0,127,255);stroke-linejoin:round;stroke:rgb(0,127,255)"/><path d="M65.2 655.2L65.2 655.2Q78 655.2 88.2 660.6L88.2 660.6 88.2 660.6Q98.3 666 104.1 676.4L104.1 676.4 104.1 676.4Q109.8 686.7 109.8 701.1L109.8 701.1 109.8 747.9 109.8 747.9Q109.8 750.8 107.9 752.8L107.9 752.8 107.9 752.8Q105.9 754.8 103 754.8L103 754.8 103 754.8Q99.9 754.8 98 752.8L98 752.8 98 752.8Q96 750.8 96 747.9L96 747.9 96 701.1 96 701.1Q96 685.1 87.1 676.8L87.1 676.8 87.1 676.8Q78.2 668.4 63.8 668.4L63.8 668.4 63.8 668.4Q54.9 668.4 47.8 671.8L47.8 671.8 47.8 671.8Q40.7 675.2 36.6 681.3L36.6 681.3 36.6 681.3Q32.4 687.3 32.4 694.7L32.4 694.7 32.4 747.9 32.4 747.9Q32.4 751 30.6 752.9L30.6 752.9 30.6 752.9Q28.7 754.8 25.6 754.8L25.6 754.8 25.6 754.8Q22.5 754.8 20.6 752.9L20.6 752.9 20.6 752.9Q18.6 751 18.6 747.9L18.6 747.9 18.6 663.3 18.6 663.3Q18.6 660.3 20.6 658.3L20.6 658.3 20.6 658.3Q22.5 656.3 25.6 656.3L25.6 656.3 25.6 656.3Q28.7 656.3 30.6 658.3L30.6 658.3 30.6 658.3Q32.4 660.3 32.4 663.3L32.4 663.3 32.4 669.5 32.4 669.5Q38.4 662.8 46.8 659L46.8 659 46.8 659Q55.3 655.2 65.2 655.2L65.2 655.2ZM182.4 655.4L182.4 655.4Q195.7 655.4 206 661.6L206 661.6 206 661.6Q216.2 667.8 221.9 678.8L221.9 678.8 221.9 678.8Q227.6 689.8 227.6 703.8L227.6 703.8 227.6 703.8Q227.6 706.7 225.8 708.4L225.8 708.4 225.8 708.4Q224 710.1 221.1 710.1L221.1 710.1 148.4 710.1 148.4 710.1Q149.8 724.9 159.9 734.1L159.9 734.1 159.9 734.1Q170 743.3 185.1 743.3L185.1 743.3 185.1 743.3Q191.6 743.3 198.1 741L198.1 741 198.1 741Q204.7 738.8 208.7 735.3L208.7 735.3 208.7 735.3Q211 733.5 213.5 733.5L213.5 733.5 213.5 733.5Q215.5 733.5 217.5 735L217.5 735 217.5 735Q219.8 737.1 219.8 739.8L219.8 739.8 219.8 739.8Q219.8 742.2 217.8 744L217.8 744 217.8 744Q211.9 749 202.7 752.4L202.7 752.4 202.7 752.4Q193.5 755.7 185.1 755.7L185.1 755.7 185.1 755.7Q170.7 755.7 159.3 749.3L159.3 749.3 159.3 749.3Q148 742.9 141.6 731.5L141.6 731.5 141.6 731.5Q135.2 720 135.2 705.6L135.2 705.6 135.2 705.6Q135.2 691.1 141.3 679.6L141.3 679.6 141.3 679.6Q147.3 668.2 158 661.8L158 661.8 158 661.8Q168.7 655.4 182.4 655.4L182.4 655.4ZM182.4 667.8L182.4 667.8Q168.7 667.8 159.7 676.3L159.7 676.3 159.7 676.3Q150.7 684.8 148.7 698.6L148.7 698.6 214.6 698.6 214.6 698.6Q213.2 684.8 204.5 676.3L204.5 676.3 204.5 676.3Q195.9 667.8 182.4 667.8L182.4 667.8ZM301 655.4L301 655.4Q315 655.4 326.5 662L326.5 662 326.5 662Q337.9 668.6 344.5 680.1L344.5 680.1 344.5 680.1Q351 691.6 351 705.6L351 705.6 351 705.6Q351 719.7 344.7 731.1L344.7 731.1 344.7 731.1Q338.3 742.5 327.2 749.1L327.2 749.1 327.2 749.1Q316.1 755.7 302.4 755.7L302.4 755.7 302.4 755.7Q290.7 755.7 281 750.7L281 750.7 281 750.7Q271.3 745.8 265 737.1L265 737.1 265 789.9 265 789.9Q265 792.9 263 794.9L263 794.9 263 794.9Q261 796.9 258 796.9L258 796.9 258 796.9Q254.9 796.9 253 794.9L253 794.9 253 794.9Q251.1 792.9 251.1 789.9L251.1 789.9 251.1 749.6 251.1 749.6Q251 749 251 747.9L251 747.9 251 705.6 251 705.6Q251 691.6 257.5 680.1L257.5 680.1 257.5 680.1Q264.1 668.6 275.5 662L275.5 662 275.5 662Q287 655.4 301 655.4L301 655.4ZM301 743.1L301 743.1Q311.3 743.1 319.6 738.2L319.6 738.2 319.6 738.2Q328 733.4 332.8 724.8L332.8 724.8 332.8 724.8Q337.5 716.3 337.5 705.6L337.5 705.6 337.5 705.6Q337.5 695 332.8 686.5L332.8 686.5 332.8 686.5Q328 677.9 319.6 673L319.6 673 319.6 673Q311.3 668 301 668L301 668 301 668Q290.7 668 282.5 673L282.5 673 282.5 673Q274.2 677.9 269.4 686.5L269.4 686.5 269.4 686.5Q264.6 695 264.6 705.6L264.6 705.6 264.6 705.6Q264.6 708.7 264.8 710.1L264.8 710.1 264.8 710.1Q265 710.5 265 711L265 711 265 711Q266.8 725.1 276.8 734.1L276.8 734.1 276.8 734.1Q286.8 743.1 301 743.1L301 743.1ZM421.6 740.9L421.6 740.9Q424.5 740.9 426.3 742.9L426.3 742.9 426.3 742.9Q428.1 744.9 428.1 747.9L428.1 747.9 428.1 747.9Q428.1 750.8 425.9 752.8L425.9 752.8 425.9 752.8Q423.8 754.8 420.5 754.8L420.5 754.8 416.7 754.8 416.7 754.8Q407.2 754.8 399.6 750.2L399.6 750.2 399.6 750.2Q392.1 745.6 387.9 737.8L387.9 737.8 387.9 737.8Q383.6 729.9 383.6 720L383.6 720 383.6 672 371.9 672 371.9 672Q369 672 367.3 670.3L367.3 670.3 367.3 670.3Q365.6 668.6 365.6 666L365.6 666 365.6 666Q365.6 663.3 367.3 661.6L367.3 661.6 367.3 661.6Q369 659.9 371.9 659.9L371.9 659.9 383.6 659.9 383.6 632 383.6 632Q383.6 629 385.5 627L385.5 627 385.5 627Q387.4 625 390.5 625L390.5 625 390.5 625Q393.5 625 395.5 627L395.5 627 395.5 627Q397.5 629 397.5 632L397.5 632 397.5 659.9 417.8 659.9 417.8 659.9Q420.7 659.9 422.4 661.6L422.4 661.6 422.4 661.6Q424.1 663.3 424.1 666L424.1 666 424.1 666Q424.1 668.6 422.4 670.3L422.4 670.3 422.4 670.3Q420.7 672 417.8 672L417.8 672 397.5 672 397.5 720 397.5 720Q397.5 729.2 402.9 735.1L402.9 735.1 402.9 735.1Q408.3 740.9 416.7 740.9L416.7 740.9 421.6 740.9ZM533 656.3L533 656.3Q536.1 656.3 538.1 658.2L538.1 658.2 538.1 658.2Q540 660.1 540 663.2L540 663.2 540 747.8 540 747.8Q540 750.8 538.1 752.8L538.1 752.8 538.1 752.8Q536.1 754.8 533 754.8L533 754.8 533 754.8Q530 754.8 528.1 752.8L528.1 752.8 528.1 752.8Q526.2 750.8 526.2 747.8L526.2 747.8 526.2 741.6 526.2 741.6Q520.2 748.3 511.8 752.1L511.8 752.1 511.8 752.1Q503.3 755.9 493.4 755.9L493.4 755.9 493.4 755.9Q480.6 755.9 470.5 750.5L470.5 750.5 470.5 750.5Q460.3 745.1 454.5 734.7L454.5 734.7 454.5 734.7Q448.8 724.4 448.8 710L448.8 710 448.8 663.2 448.8 663.2Q448.8 660.3 450.8 658.3L450.8 658.3 450.8 658.3Q452.7 656.3 455.6 656.3L455.6 656.3 455.6 656.3Q458.7 656.3 460.7 658.3L460.7 658.3 460.7 658.3Q462.6 660.3 462.6 663.2L462.6 663.2 462.6 710 462.6 710Q462.6 726 471.6 734.4L471.6 734.4 471.6 734.4Q480.5 742.7 494.9 742.7L494.9 742.7 494.9 742.7Q503.7 742.7 510.8 739.3L510.8 739.3 510.8 739.3Q517.9 735.9 522 729.9L522 729.9 522 729.9Q526.2 723.8 526.2 716.4L526.2 716.4 526.2 663.2 526.2 663.2Q526.2 660.1 528.1 658.2L528.1 658.2 528.1 658.2Q530 656.3 533 656.3L533 656.3ZM619.1 655.2L619.1 655.2Q631.8 655.2 642 660.6L642 660.6 642 660.6Q652.2 666 657.9 676.4L657.9 676.4 657.9 676.4Q663.7 686.7 663.7 701.1L663.7 701.1 663.7 747.9 663.7 747.9Q663.7 750.8 661.7 752.8L661.7 752.8 661.7 752.8Q659.7 754.8 656.9 754.8L656.9 754.8 656.9 754.8Q653.8 754.8 651.8 752.8L651.8 752.8 651.8 752.8Q649.8 750.8 649.8 747.9L649.8 747.9 649.8 701.1 649.8 701.1Q649.8 685.1 640.9 676.8L640.9 676.8 640.9 676.8Q632 668.4 617.6 668.4L617.6 668.4 617.6 668.4Q608.8 668.4 601.7 671.8L601.7 671.8 601.7 671.8Q594.6 675.2 590.4 681.3L590.4 681.3 590.4 681.3Q586.3 687.3 586.3 694.7L586.3 694.7 586.3 747.9 586.3 747.9Q586.3 751 584.4 752.9L584.4 752.9 584.4 752.9Q582.5 754.8 579.5 754.8L579.5 754.8 579.5 754.8Q576.4 754.8 574.4 752.9L574.4 752.9 574.4 752.9Q572.4 751 572.4 747.9L572.4 747.9 572.4 663.3 572.4 663.3Q572.4 660.3 574.4 658.3L574.4 658.3 574.4 658.3Q576.4 656.3 579.5 656.3L579.5 656.3 579.5 656.3Q582.5 656.3 584.4 658.3L584.4 658.3 584.4 658.3Q586.3 660.3 586.3 663.3L586.3 663.3 586.3 669.5 586.3 669.5Q592.2 662.8 600.7 659L600.7 659 600.7 659Q609.2 655.2 619.1 655.2L619.1 655.2ZM736.2 655.4L736.2 655.4Q749.6 655.4 759.8 661.6L759.8 661.6 759.8 661.6Q770.1 667.8 775.8 678.8L775.8 678.8 775.8 678.8Q781.4 689.8 781.4 703.8L781.4 703.8 781.4 703.8Q781.4 706.7 779.6 708.4L779.6 708.4 779.6 708.4Q777.8 710.1 774.9 710.1L774.9 710.1 702.2 710.1 702.2 710.1Q703.7 724.9 713.7 734.1L713.7 734.1 713.7 734.1Q723.8 743.3 738.9 743.3L738.9 743.3 738.9 743.3Q745.4 743.3 752 741L752 741 752 741Q758.6 738.8 762.5 735.3L762.5 735.3 762.5 735.3Q764.9 733.5 767.4 733.5L767.4 733.5 767.4 733.5Q769.4 733.5 771.3 735L771.3 735 771.3 735Q773.7 737.1 773.7 739.8L773.7 739.8 773.7 739.8Q773.7 742.2 771.7 744L771.7 744 771.7 744Q765.8 749 756.6 752.4L756.6 752.4 756.6 752.4Q747.4 755.7 738.9 755.7L738.9 755.7 738.9 755.7Q724.5 755.7 713.2 749.3L713.2 749.3 713.2 749.3Q701.9 742.9 695.5 731.5L695.5 731.5 695.5 731.5Q689.1 720 689.1 705.6L689.1 705.6 689.1 705.6Q689.1 691.1 695.1 679.6L695.1 679.6 695.1 679.6Q701.1 668.2 711.9 661.8L711.9 661.8 711.9 661.8Q722.6 655.4 736.2 655.4L736.2 655.4ZM736.2 667.8L736.2 667.8Q722.6 667.8 713.6 676.3L713.6 676.3 713.6 676.3Q704.6 684.8 702.6 698.6L702.6 698.6 768.5 698.6 768.5 698.6Q767 684.8 758.4 676.3L758.4 676.3 758.4 676.3Q749.7 667.8 736.2 667.8L736.2 667.8Z" fill="rgb(0,127,255)"/></g></svg>